<?xml version="1.0" encoding="UTF-8"?>
<!DOCTYPE svg PUBLIC "-//W3C//DTD SVG 1.1//EN" "http://www.w3.org/Graphics/SVG/1.1/DTD/svg11.dtd">
<!-- Creator: CorelDRAW X7 -->
<svg xmlns="http://www.w3.org/2000/svg" xml:space="preserve" width="13.5238in" height="3.59088in" version="1.1" style="shape-rendering:geometricPrecision; text-rendering:geometricPrecision; image-rendering:optimizeQuality; fill-rule:evenodd; clip-rule:evenodd"
viewBox="0 0 15066 4000"
 xmlns:xlink="http://www.w3.org/1999/xlink">
 <defs>
  <style type="text/css">
   <![CDATA[
    .fil0 {fill:black}
   ]]>
  </style>
 </defs>
 <g id="Layer_x0020_1">
  <metadata id="CorelCorpID_0Corel-Layer"/>
  <g id="_2484833383712">
   <path class="fil0" d="M7471 59c73,-45 164,-38 246,-55 431,-14 862,15 1292,26 226,33 455,9 682,38 194,6 386,35 580,47 -112,47 -233,9 -350,16 -114,8 -227,-40 -340,-10 -134,13 -269,12 -402,7 -568,-62 -1142,9 -1708,-69z"/>
   <path class="fil0" d="M7133 35c100,2 201,-9 301,-8 -17,23 -34,47 -51,70 -34,-12 -67,-25 -100,-41 -31,22 -64,42 -98,60 -17,-27 -35,-54 -52,-81z"/>
   <path class="fil0" d="M6251 101c215,2 439,-74 648,4 -43,17 -87,32 -132,44 55,5 109,14 162,28 -160,28 -323,0 -484,12 -172,-25 -343,12 -515,14 -191,57 -394,37 -588,83 53,-87 164,-126 263,-120 98,10 191,-29 288,-33 120,-3 238,-35 358,-32z"/>
   <path class="fil0" d="M10258 146c120,-44 253,-13 377,1 -123,31 -253,10 -377,-1z"/>
   <path class="fil0" d="M6943 159c104,4 208,-5 311,14 -103,16 -207,7 -311,11l0 -25z"/>
   <path class="fil0" d="M8134 192c16,16 16,16 0,0z"/>
   <path class="fil0" d="M8293 268c159,0 319,12 476,-16 212,20 426,6 638,39 135,6 271,11 406,30 525,18 1049,51 1574,61 220,21 440,56 662,52 310,34 622,50 930,105 -213,54 -428,-16 -642,-3 -178,-28 -358,-15 -537,-21 -109,-14 -217,-33 -327,-23 168,48 342,48 514,60 218,34 443,14 657,70 -82,16 -163,-1 -243,-19 -146,-5 -293,3 -438,-23 -136,33 -277,-7 -412,31 -165,-16 -331,-7 -496,-34 -294,-7 -586,-43 -880,-53 -108,22 -217,20 -326,29 205,48 416,36 623,68 112,12 225,4 337,18 276,35 562,-2 831,86 182,13 363,46 546,40 219,20 439,36 659,54 254,3 508,21 760,54 -133,15 -267,10 -400,4 -250,-3 -502,-1 -752,-19 35,8 71,16 107,23 -32,16 -64,33 -95,50 211,-1 428,-11 632,53 139,10 282,0 417,44 -74,28 -152,38 -230,38 138,39 283,25 424,54 279,-12 536,135 816,114 -17,17 -52,49 -69,65 155,60 315,106 477,143 -88,9 -174,45 -264,31 -48,-12 -95,1 -132,32 73,20 147,32 222,47 -88,17 -176,32 -264,49 97,17 195,25 292,39 -67,15 -134,29 -198,49 110,26 224,37 335,60 -103,48 -216,35 -326,43 111,90 257,81 384,126 -186,29 -375,-48 -558,1 200,91 430,71 643,112 -42,26 -85,51 -127,75 21,35 42,69 65,103 -78,-5 -155,-11 -233,-4 7,36 15,72 24,107 -84,-3 -159,33 -234,65 59,18 117,41 176,63 69,14 147,4 199,63 -66,22 -135,57 -207,45 -131,-20 -264,-23 -395,-12 85,24 174,29 260,54 -11,12 -34,34 -45,45 48,22 95,43 142,66 -21,25 -42,50 -65,73 -165,34 -338,19 -501,66 93,52 202,60 297,106 -62,96 -182,87 -279,118 39,22 78,45 117,67 -41,100 -141,174 -250,168 -123,-41 -247,26 -374,5 127,38 241,117 378,115 -8,33 -16,66 -24,99 -133,-17 -264,-68 -400,-51 62,40 135,54 203,79 -51,9 -103,19 -154,27 -95,-18 -187,-51 -284,-52 7,11 22,35 30,47 160,40 328,51 485,105 -66,8 -131,10 -197,13 9,16 25,48 33,63 -40,-11 -80,-22 -120,-34 8,15 25,43 33,57 -204,16 -409,-14 -612,19 -120,0 -237,-28 -355,-44 -276,-17 -552,-39 -827,-73 -404,-33 -808,-41 -1212,-64 -213,-14 -430,32 -638,-27 -606,-54 -1215,-33 -1822,-31 -47,0 -97,-2 -137,25 -29,25 -45,69 -87,76 -283,-23 -567,4 -850,14 -391,61 -785,63 -1180,80 41,20 83,37 124,55 -173,7 -345,33 -519,32 -138,22 -267,-51 -405,-32 84,23 171,21 256,38 -272,53 -567,1 -822,125 -490,50 -668,48 -1158,-12l521 -140c-83,-15 -223,27 -235,19 62,-33 306,-135 378,-144 133,-26 290,-37 377,-154 101,-14 203,-20 299,-59 -187,-11 -375,0 -562,4 -75,4 -143,-44 -219,-35 -371,4 -750,28 -1105,143 -162,24 -323,60 -474,124 -82,8 -164,6 -244,25 -128,-14 -288,-56 -382,60 94,-15 189,-30 283,-40 -9,12 -28,36 -37,48 -120,25 -241,12 -361,0 -148,3 -289,-46 -432,-80 60,-18 123,-28 185,-33 -215,-58 -442,-90 -664,-59 -199,-10 -397,50 -594,18 111,-90 263,-62 392,-107 -16,-7 -48,-21 -64,-28 27,-24 53,-50 77,-75 -83,-8 -167,-11 -250,-21 120,-65 258,-77 390,-102 19,33 39,66 66,94 -21,-51 -49,-98 -74,-147 38,-22 76,-44 114,-67 -123,-15 -246,-15 -369,-4 -31,-46 -65,-90 -102,-131 141,-18 283,-32 425,-37 -32,-24 -64,-48 -97,-71 48,-29 96,-58 143,-87 -49,-23 -101,-44 -154,-20 -97,31 -199,51 -301,41 96,-37 200,-47 301,-66 -139,-75 -289,-6 -434,-1 34,-25 68,-49 103,-73 -53,3 -106,8 -159,14 22,-17 44,-34 67,-52 -63,-13 -126,-30 -183,-59 65,-40 142,-47 215,-61 154,-16 307,-40 460,-65 -18,-12 -52,-35 -69,-47 119,-42 242,-71 357,-122 -31,-17 -62,-33 -94,-49 33,-15 66,-30 100,-45 -62,-6 -123,-18 -185,-25 -78,7 -157,24 -236,11 87,-77 185,-144 292,-192 47,-22 71,-80 126,-89 198,-32 394,-77 585,-137 -62,-9 -124,-16 -184,-37 105,-14 211,-6 313,18 -17,-13 -51,-37 -69,-49 93,-10 186,-28 279,-35 8,-26 17,-52 26,-78 -105,10 -213,22 -317,-2 -5,-14 -16,-40 -22,-54 -49,-2 -99,-5 -148,-11 107,-37 220,-51 331,-66 139,20 280,-1 417,-26 1,-39 3,-78 4,-118 179,15 355,-18 530,-47 -276,-24 -554,9 -828,41 -101,33 -208,39 -313,28 -27,-16 -41,-41 -39,-73 83,-45 176,-71 255,-125 17,22 35,45 52,67 61,-36 126,-24 190,-4 131,-18 266,-35 385,-95 -85,-61 -166,19 -252,35 -65,11 -130,26 -194,41 -9,-27 -17,-52 -25,-79 85,-16 167,-42 249,-69 -89,-17 -179,-13 -269,-8 -38,-22 -75,-50 -29,-89 69,-4 139,-4 209,-11 -17,-12 -51,-35 -68,-47 81,-33 167,-53 249,-85 -231,-12 -462,2 -692,15 2,-9 6,-26 8,-35 212,-2 424,-40 630,-86 -360,16 -717,65 -1075,102 79,-46 164,-84 256,-92 388,-78 783,-103 1175,-148 332,9 656,-82 987,-84 430,-85 862,-164 1294,-233 119,-22 257,-64 356,31 -30,30 -62,57 -94,84 224,5 444,-50 667,-60 264,-16 524,-56 789,-53 165,-29 330,21 496,6 130,8 254,-39 384,-31 276,3 553,-5 829,0zm4146 641c17,17 17,17 0,0zm-10065 197c32,40 125,23 173,9 -29,-44 -125,-25 -173,-9zm-603 161c-38,-1 -71,9 -99,28 22,68 230,-23 99,-28zm12388 168c3,40 108,41 111,0 -31,-22 -81,-22 -111,0zm-13363 1429c3,90 84,-42 0,0zm109 5c16,16 16,16 0,0zm1159 800c16,16 16,16 0,0z"/>
   <path class="fil0" d="M12950 545c73,-9 146,5 219,4 -5,9 -15,28 -19,38 -67,-15 -135,-20 -200,-42z"/>
   <path class="fil0" d="M13211 578c17,17 17,17 0,0z"/>
   <path class="fil0" d="M12691 607c98,-2 194,22 293,21 98,3 204,-4 292,49 -194,-34 -400,9 -585,-70z"/>
   <path class="fil0" d="M1730 1472c72,-63 173,-44 260,-41 -85,23 -173,35 -260,41z"/>
   <path class="fil0" d="M2977 3640c79,-42 6,93 0,0z"/>
   <path class="fil0" d="M1318 3831c87,-41 5,89 0,0z"/>
   <path class="fil0" d="M1126 3890c15,16 15,16 0,0z"/>
   <path class="fil0" d="M1211 3891c86,5 173,16 257,41 -86,6 -194,38 -257,-41z"/>
  </g>
 </g>
</svg>
